<svg width="44" height="44" viewBox="0 0 44 44" fill="none" xmlns="http://www.w3.org/2000/svg">
<g clip-path="url(#clip0_58_13)">
<path d="M44 22C44 9.84974 34.1503 0 22 0C9.84974 0 0 9.84974 0 22C0 34.1503 9.84974 44 22 44C34.1503 44 44 34.1503 44 22Z" fill="white"/>
<path d="M15.7363 28.2634L28.2643 15.7366M28.2643 15.7366C28.2643 15.7366 27.3221 18.9349 27.3221 21.0374C27.3221 23.1399 28.2643 26.3382 28.2643 26.3382M28.2643 15.7366C28.2643 15.7366 25.0652 16.6785 22.9621 16.6785C20.8591 16.6785 17.66 15.7366 17.66 15.7366" stroke="#FF9D05" stroke-width="2" stroke-linecap="round" stroke-linejoin="round"/>
</g>
<defs>
<clipPath id="clip0_58_13">
<rect width="44" height="44" fill="white"/>
</clipPath>
</defs>
</svg>
