<svg width="44" height="44" viewBox="0 0 44 44" fill="none" xmlns="http://www.w3.org/2000/svg">
<g clip-path="url(#clip0_59_19)">
<path d="M44 22C44 9.84974 34.1503 0 22 0C9.84974 0 0 9.84974 0 22C0 34.1503 9.84974 44 22 44C34.1503 44 44 34.1503 44 22Z" fill="white" fill-opacity="0.2"/>
<path d="M19 25V19H25V25H19ZM21 23H23V21H21V23ZM19 31V29H17C16.45 29 15.9792 28.8042 15.5875 28.4125C15.1958 28.0208 15 27.55 15 27V25H13V23H15V21H13V19H15V17C15 16.45 15.1958 15.9792 15.5875 15.5875C15.9792 15.1958 16.45 15 17 15H19V13H21V15H23V13H25V15H27C27.55 15 28.0208 15.1958 28.4125 15.5875C28.8042 15.9792 29 16.45 29 17V19H31V21H29V23H31V25H29V27C29 27.55 28.8042 28.0208 28.4125 28.4125C28.0208 28.8042 27.55 29 27 29H25V31H23V29H21V31H19ZM27 27V17H17V27H27Z" fill="#E3E3E3"/>
</g>
<defs>
<clipPath id="clip0_59_19">
<rect width="44" height="44" fill="white"/>
</clipPath>
</defs>
</svg>
