<svg width="44" height="44" viewBox="0 0 44 44" fill="none" xmlns="http://www.w3.org/2000/svg">
<g clip-path="url(#clip0_59_16)">
<path d="M44 22C44 9.84974 34.1503 0 22 0C9.84974 0 0 9.84974 0 22C0 34.1503 9.84974 44 22 44C34.1503 44 44 34.1503 44 22Z" fill="white" fill-opacity="0.2"/>
<path d="M17 27V17H27V27H17ZM19 25H25V19H19V25ZM15 29V31C14.45 31 13.9792 30.8042 13.5875 30.4125C13.1958 30.0208 13 29.55 13 29H15ZM13 27V25H15V27H13ZM13 23V21H15V23H13ZM13 19V17H15V19H13ZM15 15H13C13 14.45 13.1958 13.9792 13.5875 13.5875C13.9792 13.1958 14.45 13 15 13V15ZM17 31V29H19V31H17ZM17 15V13H19V15H17ZM21 31V29H23V31H21ZM21 15V13H23V15H21ZM25 31V29H27V31H25ZM25 15V13H27V15H25ZM29 31V29H31C31 29.55 30.8042 30.0208 30.4125 30.4125C30.0208 30.8042 29.55 31 29 31ZM29 27V25H31V27H29ZM29 23V21H31V23H29ZM29 19V17H31V19H29ZM29 15V13C29.55 13 30.0208 13.1958 30.4125 13.5875C30.8042 13.9792 31 14.45 31 15H29Z" fill="#E3E3E3"/>
</g>
<defs>
<clipPath id="clip0_59_16">
<rect width="44" height="44" fill="white"/>
</clipPath>
</defs>
</svg>
