<svg width="44" height="44" viewBox="0 0 44 44" fill="none" xmlns="http://www.w3.org/2000/svg">
<g clip-path="url(#clip0_59_22)">
<path d="M44 22C44 9.84974 34.1503 0 22 0C9.84974 0 0 9.84974 0 22C0 34.1503 9.84974 44 22 44C34.1503 44 44 34.1503 44 22Z" fill="white" fill-opacity="0.2"/>
<path d="M18.0749 30C17.8916 30 17.7207 29.9542 17.5624 29.8625C17.4041 29.7708 17.2832 29.6417 17.1999 29.475L15.2499 26H16.6999L17.6999 28H19.9999V27H18.2999L17.2999 25H14.6999L13.2749 22.5C13.2416 22.4167 13.2124 22.3333 13.1874 22.25C13.1624 22.1667 13.1499 22.0833 13.1499 22C13.1499 21.9333 13.1916 21.7667 13.2749 21.5L14.6999 19H17.2999L18.2999 17H19.9999V16H17.6999L16.6999 18H15.2499L17.1999 14.525C17.2832 14.3583 17.4041 14.2292 17.5624 14.1375C17.7207 14.0458 17.8916 14 18.0749 14H20.4999C20.7832 14 21.0207 14.0958 21.2124 14.2875C21.4041 14.4792 21.4999 14.7167 21.4999 15V19H19.9999L18.9999 20H21.4999V23H19.2999L18.2999 21H15.9999L14.9999 22H17.6999L18.6999 24H21.4999V29C21.4999 29.2833 21.4041 29.5208 21.2124 29.7125C21.0207 29.9042 20.7832 30 20.4999 30H18.0749ZM23.9999 30C23.4499 30 22.9791 29.8042 22.5874 29.4125C22.1957 29.0208 21.9999 28.55 21.9999 28C21.9999 27.6167 22.0916 27.2792 22.2749 26.9875C22.4582 26.6958 22.6999 26.4583 22.9999 26.275V17.725C22.6999 17.5417 22.4582 17.3042 22.2749 17.0125C22.0916 16.7208 21.9999 16.3833 21.9999 16C21.9999 15.45 22.1957 14.9792 22.5874 14.5875C22.9791 14.1958 23.4499 14 23.9999 14C24.5499 14 25.0207 14.1958 25.4124 14.5875C25.8041 14.9792 25.9999 15.45 25.9999 16C25.9999 16.3833 25.9082 16.7208 25.7249 17.0125C25.5416 17.3042 25.2999 17.5417 24.9999 17.725V20.25L26.9999 19.05C26.9999 18.4833 27.1957 18 27.5874 17.6C27.9791 17.2 28.4499 17 28.9999 17C29.5499 17 30.0207 17.1958 30.4124 17.5875C30.8041 17.9792 30.9999 18.45 30.9999 19C30.9999 19.55 30.8041 20.0208 30.4124 20.4125C30.0207 20.8042 29.5499 21 28.9999 21C28.8166 21 28.6457 20.9792 28.4874 20.9375C28.3291 20.8958 28.1749 20.8333 28.0249 20.75L25.7499 22.125L28.2749 24.125C28.3916 24.075 28.5082 24.0417 28.6249 24.025C28.7416 24.0083 28.8666 24 28.9999 24C29.5499 24 30.0207 24.1958 30.4124 24.5875C30.8041 24.9792 30.9999 25.45 30.9999 26C30.9999 26.55 30.8041 27.0208 30.4124 27.4125C30.0207 27.8042 29.5499 28 28.9999 28C28.3832 28 27.8791 27.7667 27.4874 27.3C27.0957 26.8333 26.9416 26.3 27.0249 25.7L24.9999 24.075V26.3C25.2999 26.4833 25.5374 26.7208 25.7124 27.0125C25.8874 27.3042 25.9749 27.6333 25.9749 28C25.9749 28.55 25.7832 29.0208 25.3999 29.4125C25.0166 29.8042 24.5499 30 23.9999 30Z" fill="#E3E3E3"/>
</g>
<defs>
<clipPath id="clip0_59_22">
<rect width="44" height="44" fill="white"/>
</clipPath>
</defs>
</svg>
